<svg width="110" height="47" viewBox="0 0 110 47" version="1.1" xmlns="http://www.w3.org/2000/svg" xmlns:xlink="http://www.w3.org/1999/xlink">
    <defs>
        <polygon id="logo-path-1" points="0 47 109.748571 47 109.748571 0.336833333 0 0.336833333"></polygon>
    </defs>
    <g stroke="none" stroke-width="1" fill="none" fill-rule="evenodd">
        <g transform="translate(-160.000000, -346.000000)">
            <g transform="translate(0.000000, 226.000000)">
                <g>
                    <g transform="translate(0.000000, 56.000000)">
                        <g id="Vari-logo" transform="translate(160.000000, 64.000000)">
                            <polygon fill="#002543" points="22.0617469 14 15.4996052 34.6992622 8.8750796 14 0 14 11.4999363 46 19.499274 46 31 14"></polygon>
                            <g>
                                <path d="M59.8870643,25.804175 L59.8870643,46.279725 L51.3054929,46.279725 L51.3054929,41.8554583 C50.2479214,44.8266417 46.7656357,46.7857583 42.4740643,46.7857583 C36.38085,46.7857583 32.2134214,42.677175 32.2134214,37.2424083 C32.2134214,30.9867083 36.8161357,27.1945917 43.6565643,27.1945917 L48.9420643,27.1945917 C50.4969929,27.1945917 51.3054929,26.1840917 51.3054929,24.8563417 C51.3054929,22.2024083 49.2532071,20.3694083 45.7080643,20.3694083 C41.9154214,20.3694083 39.9872786,22.7711083 39.86235,25.4250417 L32.15135,25.4250417 C32.5245643,19.0424417 37.62385,13.9233583 46.2062071,13.9233583 C54.1034214,13.9233583 59.8870643,18.6006417 59.8870643,25.804175 M51.3054929,33.1980583 L51.3054929,32.7562583 L44.9624214,32.7562583 C42.3507071,32.7562583 40.48385,34.3996917 40.48385,36.8640583 C40.48385,38.9485083 42.2257786,40.402375 44.6512786,40.402375 C48.8807786,40.402375 51.3054929,37.2424083 51.3054929,33.1980583" fill="#002543"></path>
                                <path d="M80.7202,21.7596683 C76.4294143,21.7596683 74.5020571,25.3622183 74.5020571,30.796985 L74.5020571,46.2795683 L65.7955571,46.2795683 L65.7955571,14.429235 L74.5020571,14.429235 L74.5020571,19.7371017 C76.1803429,15.7562017 78.5437714,14.429235 82.3379857,14.429235 L85.8823429,14.429235 L85.8823429,21.7596683 L80.7202,21.7596683 Z" fill="#002543"></path>
                                <mask id="logo-mask-2" fill="white">
                                    <use xlink:href="#logo-path-1"></use>
                                </mask>
                                <g></g>
                                <path d="M89.551,9.68983333 L99.066,9.68983333 L99.066,0.336833333 L89.551,0.336833333 L89.551,9.68983333 Z M89.9242143,46.2793333 L98.6315,46.2793333 L98.6315,14.429 L89.9242143,14.429 L89.9242143,46.2793333 Z" fill="#002543" mask="url(#logo-path-mask-2)"></path>
                                <path d="M109.74865,43.02615 C109.74865,45.2523833 108.029507,47 105.789436,47 C103.576864,47 101.809007,45.2523833 101.809007,43.02615 C101.809007,40.8469167 103.576864,39.0993 105.789436,39.0993 C108.029507,39.0993 109.74865,40.8469167 109.74865,43.02615 L109.74865,43.02615 Z M102.798221,43.02615 C102.798221,44.7729833 104.070293,46.1618333 105.813793,46.1618333 C107.510936,46.1618333 108.75865,44.7729833 108.75865,43.0488667 C108.75865,41.30125 107.510936,39.8904667 105.789436,39.8904667 C104.070293,39.8904667 102.798221,41.30125 102.798221,43.02615 L102.798221,43.02615 Z M105.178936,45.08475 L104.28165,45.08475 L104.28165,41.1579 C104.636793,41.0866167 105.131007,41.0396167 105.767436,41.0396167 C106.497364,41.0396167 106.82815,41.1579 107.110221,41.3263167 C107.321579,41.49395 107.487364,41.8049333 107.487364,42.1887667 C107.487364,42.6188167 107.156579,42.9548667 106.686721,43.0982167 L106.686721,43.1452167 C107.061507,43.2885667 107.275221,43.5768333 107.392293,44.1032333 C107.510936,44.7017 107.58165,44.9414 107.674364,45.08475 L106.708721,45.08475 C106.592436,44.9414 106.521721,44.5810667 106.402293,44.12595 C106.331579,43.6959 106.095864,43.50555 105.602436,43.50555 L105.178936,43.50555 L105.178936,45.08475 Z M105.200936,42.8585167 L105.626793,42.8585167 C106.120221,42.8585167 106.521721,42.6901 106.521721,42.2827667 C106.521721,41.924 106.26165,41.6843 105.697507,41.6843 C105.461007,41.6843 105.296007,41.7093667 105.200936,41.73365 L105.200936,42.8585167 Z" fill="#002543" mask="url(#logo-mask-2)"></path>
                            </g>
                        </g>
                    </g>
                </g>
            </g>
        </g>
    </g>
</svg>